<?xml version="1.0" encoding="UTF-8"?>
<svg width="100" height="100" viewBox="0 0 100 100" xmlns="http://www.w3.org/2000/svg">
  <defs>
    <linearGradient id="gradientPrimary" x1="0%" y1="0%" x2="100%" y2="100%">
      <stop offset="0%" stop-color="#1E88E5"/>
      <stop offset="100%" stop-color="#0D47A1"/>
    </linearGradient>
  </defs>
  <circle cx="50" cy="50" r="45" fill="#F5F7FA" stroke="#E4E7EB" stroke-width="2"/>
  
  <!-- Neural network nodes and connections -->
  <circle cx="25" cy="30" r="6" fill="url(#gradientPrimary)"/>
  <circle cx="25" cy="50" r="6" fill="url(#gradientPrimary)"/>
  <circle cx="25" cy="70" r="6" fill="url(#gradientPrimary)"/>
  
  <circle cx="50" cy="25" r="6" fill="url(#gradientPrimary)"/>
  <circle cx="50" cy="45" r="6" fill="url(#gradientPrimary)"/>
  <circle cx="50" cy="65" r="6" fill="url(#gradientPrimary)"/>
  <circle cx="50" cy="85" r="6" fill="url(#gradientPrimary)"/>
  
  <circle cx="75" cy="40" r="6" fill="url(#gradientPrimary)"/>
  <circle cx="75" cy="60" r="6" fill="url(#gradientPrimary)"/>
  
  <!-- Connections -->
  <path d="M25 30 L50 25 M25 30 L50 45 M25 30 L50 65 M25 30 L50 85" stroke="#1E88E5" stroke-width="1.5"/>
  <path d="M25 50 L50 25 M25 50 L50 45 M25 50 L50 65 M25 50 L50 85" stroke="#1E88E5" stroke-width="1.5"/>
  <path d="M25 70 L50 25 M25 70 L50 45 M25 70 L50 65 M25 70 L50 85" stroke="#1E88E5" stroke-width="1.5"/>
  
  <path d="M50 25 L75 40 M50 25 L75 60" stroke="#1E88E5" stroke-width="1.5"/>
  <path d="M50 45 L75 40 M50 45 L75 60" stroke="#1E88E5" stroke-width="1.5"/>
  <path d="M50 65 L75 40 M50 65 L75 60" stroke="#1E88E5" stroke-width="1.5"/>
  <path d="M50 85 L75 40 M50 85 L75 60" stroke="#1E88E5" stroke-width="1.5"/>
</svg>