<?xml version="1.0" encoding="UTF-8"?>
<svg width="300" height="200" viewBox="0 0 300 200" xmlns="http://www.w3.org/2000/svg">
  <defs>
    <linearGradient id="terrainGradient" x1="0%" y1="0%" x2="100%" y2="100%">
      <stop offset="0%" stop-color="#8D6E63"/>
      <stop offset="100%" stop-color="#5D4037"/>
    </linearGradient>
    <linearGradient id="heatmapGradient" x1="0%" y1="0%" x2="0%" y2="100%">
      <stop offset="0%" stop-color="#F44336" stop-opacity="0.7"/>
      <stop offset="50%" stop-color="#FFEB3B" stop-opacity="0.7"/>
      <stop offset="100%" stop-color="#4CAF50" stop-opacity="0.7"/>
    </linearGradient>
  </defs>
  
  <!-- Background -->
  <rect x="0" y="0" width="300" height="200" fill="#F5F7FA" rx="5" ry="5"/>
  
  <!-- Image with ML analysis -->
  <rect x="20" y="20" width="260" height="160" fill="#E4E7EB" rx="2" ry="2"/>
  
  <!-- Terrain image - same as CV analysis -->
  <path d="M20 180 L120 80 L180 140 L260 70 L280 90 L280 180 Z" fill="url(#terrainGradient)"/>
  <path d="M20 180 L90 150 L160 160 L230 150 L280 180 Z" fill="#8BC34A"/>
  
  <!-- ML Heatmap Overlay -->
  <rect x="20" y="20" width="260" height="160" fill="url(#heatmapGradient)" style="mix-blend-mode: multiply;" opacity="0.4"/>
  
  <!-- Prediction confidence regions -->
  <rect x="60" y="150" width="180" height="30" fill="#4CAF50" fill-opacity="0.3" stroke="#4CAF50" stroke-width="2"/>
  <text x="150" y="170" font-family="Arial" font-size="10" fill="#FFFFFF" text-anchor="middle" stroke="#000000" stroke-width="0.5">SAFE LANDING ZONE</text>
  
  <!-- Crosshair on landing zone center -->
  <path d="M150 155 L150 175 M140 165 L160 165" stroke="white" stroke-width="1"/>
  <circle cx="150" cy="165" r="10" fill="none" stroke="white" stroke-width="1" stroke-dasharray="2,2"/>
  
  <!-- Feature visualization -->
  <circle cx="90" cy="155" r="3" fill="#4CAF50"/>
  <circle cx="120" cy="160" r="3" fill="#4CAF50"/>
  <circle cx="150" cy="165" r="3" fill="#4CAF50"/>
  <circle cx="180" cy="160" r="3" fill="#4CAF50"/>
  <circle cx="210" cy="155" r="3" fill="#4CAF50"/>
  
  <!-- Connection lines between feature points -->
  <path d="M90 155 L120 160 L150 165 L180 160 L210 155" stroke="#4CAF50" stroke-width="1" fill="none" stroke-dasharray="3,2"/>
  
  <!-- ML Analysis overlay text -->
  <rect x="20" y="20" width="90" height="25" fill="#1E88E5" fill-opacity="0.7"/>
  <text x="30" y="37" font-family="Arial" font-size="12" fill="white">ML ANALYSIS</text>
  
  <!-- Confidence indicator -->
  <rect x="170" y="20" width="110" height="25" fill="#4CAF50" fill-opacity="0.7"/>
  <text x="180" y="37" font-family="Arial" font-size="12" fill="white">SAFE (92%)</text>
  
  <!-- ML Details -->
  <rect x="20" y="50" width="80" height="110" fill="white" fill-opacity="0.7"/>
  <text x="25" y="65" font-family="Arial" font-size="8" fill="#333">Model: MobileNetV2</text>
  <text x="25" y="80" font-family="Arial" font-size="8" fill="#333">Safe score: 92%</text>
  <text x="25" y="95" font-family="Arial" font-size="8" fill="#333">Unsafe score: 8%</text>
  <text x="25" y="110" font-family="Arial" font-size="8" fill="#333">Features:</text>
  <text x="30" y="125" font-family="Arial" font-size="8" fill="#333">- Flatness: 0.87</text>
  <text x="30" y="140" font-family="Arial" font-size="8" fill="#333">- Texture: 0.21</text>
  <text x="30" y="155" font-family="Arial" font-size="8" fill="#333">- Edges: 0.14</text>
  
  <!-- Neural network visualization hint -->
  <circle cx="240" cy="40" r="3" fill="#1E88E5"/>
  <circle cx="260" cy="40" r="3" fill="#1E88E5"/>
  <circle cx="240" cy="50" r="3" fill="#1E88E5"/>
  <circle cx="260" cy="50" r="3" fill="#1E88E5"/>
  <path d="M240 40 L260 40 L260 50 L240 50 Z" stroke="#1E88E5" stroke-width="0.5" fill="none"/>
  <path d="M240 40 L260 50 M240 50 L260 40" stroke="#1E88E5" stroke-width="0.5"/>
</svg>